Coordinates
version=1
nRows=19
nColumns=63
inDegrees=yes

Units are S.I. units (second, meters, Newtons, ...)
If the header above contains a line with 'inDegrees', this indicates whether rotational values are in degrees (yes) or radians (no).

endheader
time	pelvis_tilt	pelvis_list	pelvis_rotation	pelvis_tx	pelvis_ty	pelvis_tz	hip_flexion_r	hip_adduction_r	hip_rotation_r	knee_angle_r	knee_angle_r_beta	ankle_angle_r	subtalar_angle_r	mtp_angle_r	hip_flexion_l	hip_adduction_l	hip_rotation_l	knee_angle_l	knee_angle_l_beta	ankle_angle_l	subtalar_angle_l	mtp_angle_l	L5_S1_Flex_Ext	L5_S1_Lat_Bending	L5_S1_axial_rotation	L4_L5_Flex_Ext	L4_L5_Lat_Bending	L4_L5_axial_rotation	L3_L4_Flex_Ext	L3_L4_Lat_Bending	L3_L4_axial_rotation	L2_L3_Flex_Ext	L2_L3_Lat_Bending	L2_L3_axial_rotation	L1_L2_Flex_Ext	L1_L2_Lat_Bending	L1_L2_axial_rotation	L1_T12_Flex_Ext	L1_T12_Lat_Bending	L1_T12_axial_rotation	Abs_r3	Abs_r2	Abs_r1	Abs_t1	Abs_t2	neck_flexion	neck_bending	neck_rotation	arm_flex_r	arm_add_r	arm_rot_r	elbow_flex_r	pro_sup_r	wrist_flex_r	wrist_dev_r	arm_flex_l	arm_add_l	arm_rot_l	elbow_flex_l	pro_sup_l	wrist_flex_l	wrist_dev_l
0.898305	2.914604	-7.866886	95.059614	0.201510	0.828515	0.552639	-4.892114	2.498940	-1.908007	3.563718	0.062199	33.805399	-2.800661	0.000000	-0.472249	0.941494	13.963553	12.681321	0.221331	34.026364	-17.705033	0.000000	-0.067989	-0.042150	-0.090611	-0.126262	-0.056060	-0.096274	-0.111699	-0.102484	-0.096274	-0.077704	-0.102484	-0.079284	-0.063134	-0.085953	-0.073621	-0.038849	-0.065291	-0.067958	-0.485636	-0.476812	-0.503950	0.000000	0.000000	22.533082	0.681472	-4.865908	11.255336	-13.418062	89.813224	18.932695	31.457747	-5.314947	-9.650724	5.841954	-10.890752	168.227435	-0.463542	15.091267	-3.356498	-7.186376
0.915254	2.850867	-7.906577	94.867867	0.202068	0.828342	0.553217	-4.828792	2.440932	-1.561875	3.478239	0.060707	33.790261	-2.925029	0.000000	-0.384132	1.007234	14.003692	12.644803	0.220693	34.156221	-17.669842	0.000000	-0.071422	-0.054729	-0.030067	-0.132638	-0.072790	-0.031947	-0.117340	-0.133069	-0.031947	-0.081629	-0.133069	-0.026309	-0.066323	-0.111604	-0.024430	-0.040811	-0.084776	-0.022551	-0.510162	-0.619109	-0.167226	0.000000	0.000000	22.584770	0.718206	-5.088182	11.215753	-13.567141	92.867350	18.146786	28.690106	-5.080676	-9.547519	4.977514	-11.543406	165.808431	-0.069513	15.512982	-4.431380	-7.831056
0.932203	2.799489	-7.952162	94.660331	0.202627	0.828133	0.554046	-4.723299	2.394521	-1.108007	3.424261	0.059765	33.777368	-3.183193	0.000000	-0.255209	1.068894	14.064862	12.644721	0.220692	34.339454	-17.636956	0.000000	-0.075635	-0.065197	0.034252	-0.140462	-0.086712	0.036392	-0.124261	-0.158520	0.036392	-0.086443	-0.158520	0.029970	-0.070235	-0.132949	0.027829	-0.043218	-0.100990	0.025689	-0.540254	-0.737519	0.190497	0.000000	0.000000	22.674395	0.728977	-5.294684	11.067391	-13.711737	94.365182	17.607512	27.446051	-4.710508	-8.687318	4.109199	-12.318775	161.027314	0.762206	17.645816	-6.055321	-8.458713
0.949153	2.799972	-8.015776	94.431134	0.203099	0.827941	0.555063	-4.553532	2.382727	-0.722221	3.418077	0.059657	33.791913	-3.335358	0.000000	-0.069216	1.078612	14.023716	12.682161	0.221345	34.612477	-17.447139	0.000000	-0.077652	-0.067410	0.093716	-0.144208	-0.089655	0.099573	-0.127575	-0.163900	0.099573	-0.088749	-0.163900	0.082001	-0.072108	-0.137462	0.076144	-0.044370	-0.104418	0.070287	-0.554662	-0.762554	0.521219	0.000000	0.000000	22.775015	0.688995	-5.420116	10.964309	-13.861141	95.776633	17.165581	26.433682	-4.297006	-7.479797	3.439290	-12.697204	160.537608	0.739216	15.816695	-7.601195	-9.650457
0.966102	2.812905	-8.086088	94.219343	0.203512	0.827745	0.556179	-4.373284	2.386347	-0.212656	3.400109	0.059343	33.770294	-3.676202	0.000000	0.139421	1.090146	14.086492	12.731389	0.222205	34.897646	-17.358821	0.000000	-0.080552	-0.067283	0.142121	-0.149593	-0.089486	0.151003	-0.132339	-0.163591	0.151003	-0.092063	-0.163591	0.124356	-0.074800	-0.137203	0.115473	-0.046027	-0.104221	0.106590	-0.575374	-0.761116	0.790432	0.000000	0.000000	22.958080	0.613359	-5.503780	10.833230	-13.958975	96.695908	16.791753	26.201436	-3.860797	-6.061000	2.771746	-13.005089	160.283347	0.650452	14.061423	-9.320626	-10.753251
0.983051	2.825216	-8.160159	94.032233	0.203870	0.827570	0.557315	-4.183347	2.392035	0.367498	3.389996	0.059167	33.729010	-4.153185	0.000000	0.361683	1.105653	14.177544	12.787581	0.223185	35.210025	-17.271515	0.000000	-0.083613	-0.066396	0.182206	-0.155277	-0.088307	0.193594	-0.137367	-0.161436	0.193594	-0.095561	-0.161436	0.159430	-0.077643	-0.135396	0.148043	-0.047776	-0.102848	0.136655	-0.597238	-0.751090	1.013376	0.000000	0.000000	23.186843	0.535276	-5.511916	10.604099	-13.998222	96.852552	16.465054	26.793235	-3.442995	-4.578827	2.175802	-13.237602	160.337460	0.580045	12.716201	-11.111167	-11.609716
1.000000	2.835836	-8.237906	93.875226	0.204152	0.827436	0.558417	-3.989281	2.393438	0.892071	3.392853	0.059216	33.689356	-4.586320	0.000000	0.592005	1.125872	14.286785	12.848793	0.224254	35.528619	-17.192215	0.000000	-0.086291	-0.065017	0.206713	-0.160251	-0.086473	0.219632	-0.141768	-0.158082	0.219632	-0.098622	-0.158082	0.180874	-0.080130	-0.132583	0.167954	-0.049307	-0.100711	0.155035	-0.616369	-0.735485	1.149674	0.000000	0.000000	23.432179	0.434324	-5.459174	10.501564	-14.032881	97.660470	16.080484	26.632475	-3.239111	-3.543013	1.666094	-13.392714	160.496917	0.541577	11.983452	-12.717757	-12.182079
1.016949	2.829128	-8.318624	93.766152	0.204326	0.827332	0.559361	-3.809667	2.380042	1.441026	3.403552	0.059403	33.619986	-5.102952	0.000000	0.810272	1.164829	14.419574	12.899460	0.225138	35.825371	-17.125228	0.000000	-0.087888	-0.064665	0.216492	-0.163216	-0.086005	0.230023	-0.144391	-0.157227	0.230023	-0.100447	-0.157227	0.189430	-0.081612	-0.131866	0.175900	-0.050219	-0.100167	0.162369	-0.627772	-0.731508	1.204064	0.000000	0.000000	23.674180	0.331943	-5.316750	10.323976	-14.035975	97.979197	15.712665	26.857754	-3.126071	-2.756206	1.278639	-13.471487	160.743171	0.574044	11.697221	-13.923254	-12.427714
1.033898	2.805608	-8.394550	93.698842	0.204398	0.827273	0.560105	-3.654780	2.353476	2.041695	3.430464	0.059873	33.500953	-5.736981	0.000000	1.001665	1.219672	14.550917	12.939037	0.225829	36.080321	-17.067826	0.000000	-0.089243	-0.065725	0.209064	-0.165734	-0.087414	0.222130	-0.146618	-0.159803	0.222130	-0.101996	-0.159803	0.182931	-0.082871	-0.134026	0.169864	-0.050994	-0.101808	0.156798	-0.637455	-0.743492	1.162750	0.000000	0.000000	23.884017	0.234001	-5.115946	10.294637	-14.006602	99.188197	15.309878	26.043596	-3.022988	-2.467306	1.034775	-13.488583	160.715242	0.721536	11.940587	-14.593239	-12.363715
1.050847	2.759978	-8.461714	93.686314	0.204339	0.827250	0.560560	-3.540020	2.307853	2.634073	3.471385	0.060587	33.339419	-6.427419	0.000000	1.152121	1.295212	14.688215	12.964676	0.226276	36.270771	-17.024614	0.000000	-0.089538	-0.068587	0.184443	-0.166282	-0.091220	0.195971	-0.147103	-0.166761	0.195971	-0.102333	-0.166761	0.161388	-0.083145	-0.139862	0.149860	-0.051162	-0.106241	0.138332	-0.639564	-0.775865	1.025818	0.000000	0.000000	24.028050	0.172592	-4.832103	10.286409	-13.959226	100.328531	14.953025	25.179926	-2.937186	-2.359404	0.935259	-13.451555	160.382890	0.990949	12.436466	-14.694324	-11.954290
1.067797	2.693691	-8.512860	93.727767	0.204151	0.827267	0.560674	-3.479524	2.245893	3.201634	3.519492	0.061427	33.135670	-7.160188	0.000000	1.242902	1.386873	14.830755	12.963918	0.226263	36.385418	-16.989022	0.000000	-0.087989	-0.073387	0.145225	-0.163405	-0.097605	0.154302	-0.144558	-0.178434	0.154302	-0.100563	-0.178434	0.127072	-0.081707	-0.149652	0.117996	-0.050277	-0.113677	0.108919	-0.628500	-0.830173	0.807700	0.000000	0.000000	24.062458	0.146219	-4.503618	10.315099	-13.893518	101.404779	14.661848	24.342226	-2.876740	-2.312505	0.981437	-13.370210	159.675742	1.397783	13.112577	-14.260928	-11.217303
1.084746	2.613902	-8.537179	93.829063	0.203822	0.827329	0.560442	-3.485545	2.174611	3.708675	3.569572	0.062301	32.903746	-7.896072	0.000000	1.260945	1.485689	14.982944	12.935063	0.225759	36.423034	-16.956830	0.000000	-0.085529	-0.078972	0.092671	-0.158836	-0.105033	0.098463	-0.140516	-0.192012	0.098463	-0.097751	-0.192012	0.081087	-0.079422	-0.161040	0.075295	-0.048871	-0.122327	0.069503	-0.610926	-0.893346	0.515407	0.000000	0.000000	23.991107	0.198532	-4.063247	10.391364	-13.823182	102.381243	14.461373	23.534917	-2.797820	-2.234615	1.161284	-13.235185	158.656241	1.910403	13.958676	-13.345536	-10.195667
1.101695	2.527447	-8.517887	93.984614	0.203382	0.827447	0.559862	-3.574362	2.106550	4.245150	3.616571	0.063121	32.637715	-8.750306	0.000000	1.190741	1.581080	15.139602	12.883628	0.224862	36.391151	-16.923871	0.000000	-0.083435	-0.084534	0.030223	-0.154946	-0.112430	0.032112	-0.137075	-0.205535	0.032112	-0.095357	-0.205535	0.026445	-0.077477	-0.172381	0.024556	-0.047675	-0.130943	0.022667	-0.595965	-0.956261	0.168091	0.000000	0.000000	23.791567	0.331613	-3.494181	10.547559	-13.738558	103.529339	14.338341	22.453982	-2.679535	-2.167591	1.464354	-13.041156	157.915347	2.480642	14.535368	-12.010897	-8.908134
1.118644	2.443322	-8.464930	94.179126	0.202865	0.827609	0.558982	-3.734648	2.051853	4.886170	3.645031	0.063618	32.313256	-9.822935	0.000000	1.044944	1.664200	15.289751	12.808493	0.223550	36.296231	-16.897045	0.000000	-0.080106	-0.089584	-0.034081	-0.148766	-0.119147	-0.036211	-0.131607	-0.217814	-0.036211	-0.091554	-0.217814	-0.029821	-0.074387	-0.182680	-0.027691	-0.045773	-0.138766	-0.025561	-0.572192	-1.013392	-0.189547	0.000000	0.000000	23.485349	0.547262	-2.820976	10.758777	-13.640448	104.771288	14.289567	21.119086	-2.474272	-2.114968	1.880673	-12.786665	157.135760	3.061714	15.513274	-10.333424	-7.517855
1.135593	2.362803	-8.373675	94.420683	0.202279	0.827825	0.557879	-3.962986	2.001669	5.274599	3.657600	0.063837	32.044417	-10.616979	0.000000	0.829690	1.732645	15.446370	12.718510	0.221980	36.152549	-16.880198	0.000000	-0.076884	-0.093807	-0.097894	-0.142782	-0.124763	-0.104013	-0.126313	-0.228083	-0.104013	-0.087871	-0.228083	-0.085658	-0.071395	-0.191291	-0.079539	-0.043932	-0.145307	-0.073421	-0.549178	-1.061165	-0.544459	0.000000	0.000000	23.088497	0.834314	-2.032665	10.980734	-13.544712	105.751538	14.329426	19.833199	-2.214018	-2.044128	2.396493	-12.471579	156.690695	3.590590	16.644061	-8.546642	-6.121875
1.152542	2.292546	-8.247748	94.697549	0.201649	0.828097	0.556621	-4.247610	1.963196	5.421857	3.652265	0.063744	31.840482	-11.141131	0.000000	0.558529	1.781807	15.603190	12.623552	0.220323	35.966631	-16.880131	0.000000	-0.073538	-0.096446	-0.156681	-0.136567	-0.128274	-0.166474	-0.120815	-0.234500	-0.166474	-0.084046	-0.234500	-0.137096	-0.068287	-0.196674	-0.127303	-0.042019	-0.149396	-0.117511	-0.525273	-1.091022	-0.871413	0.000000	0.000000	22.622908	1.187223	-1.124074	11.191440	-13.453190	106.425587	14.436930	18.624429	-1.891194	-2.018792	2.987532	-12.105699	156.521781	4.022168	17.819823	-6.845433	-4.867204
1.169492	2.234417	-8.088284	95.009384	0.200966	0.828429	0.555273	-4.584004	1.936523	5.314688	3.625205	0.063272	31.701490	-11.375416	0.000000	0.233868	1.811258	15.774991	12.516811	0.218460	35.752422	-16.893414	0.000000	-0.070460	-0.097046	-0.205816	-0.130852	-0.129071	-0.218680	-0.115759	-0.235957	-0.218680	-0.080529	-0.235957	-0.180089	-0.065429	-0.197895	-0.167226	-0.040261	-0.150324	-0.154362	-0.503291	-1.097799	-1.144688	0.000000	0.000000	22.105650	1.588615	-0.108244	11.362196	-13.390635	106.720900	14.628707	17.517347	-1.530257	-2.133298	3.660761	-11.693196	156.529517	4.338389	18.921005	-5.235624	-3.852921
1.186441	2.201286	-7.922771	95.328733	0.200328	0.828796	0.553990	-4.919809	1.934668	4.990246	3.595005	0.062745	31.619815	-11.340267	0.000000	-0.087767	1.809908	15.925184	12.433602	0.217007	35.511908	-16.929917	0.000000	-0.066682	-0.095080	-0.245682	-0.123835	-0.126456	-0.261037	-0.109552	-0.231177	-0.261037	-0.076211	-0.231177	-0.214972	-0.061921	-0.193887	-0.199617	-0.038102	-0.147279	-0.184261	-0.476303	-1.075562	-1.366409	0.000000	0.000000	21.590451	2.032248	1.015432	11.510188	-13.340591	106.631726	14.881974	16.532404	-1.184804	-2.352534	4.362125	-11.255714	156.486091	4.542261	19.562619	-3.999664	-3.324720
1.203390	2.198352	-7.754488	95.653924	0.199731	0.829187	0.552830	-5.246896	1.961870	4.443647	3.563604	0.062197	31.592012	-11.036160	0.000000	-0.399796	1.774104	16.062649	12.375102	0.215986	35.253841	-16.986172	0.000000	-0.062723	-0.089793	-0.275870	-0.116482	-0.119425	-0.293112	-0.103047	-0.218323	-0.293112	-0.071686	-0.218323	-0.241387	-0.058244	-0.183107	-0.224145	-0.035840	-0.139090	-0.206903	-0.448021	-1.015760	-1.534308	0.000000	0.000000	21.093250	2.517339	2.249117	11.622499	-13.321295	106.119179	15.195540	15.647947	-0.832761	-2.752061	5.087193	-10.789306	156.308839	4.637095	19.650958	-3.032695	-3.268213
